<svg width="348" height="400" viewBox="0 0 348 400" fill="none" xmlns="http://www.w3.org/2000/svg">
<g clip-path="url(#clip0_357_2841)">
<rect width="348" height="400" fill="white"/>
<rect width="116.854" height="233.708" transform="matrix(0.000279451 1 -0.866165 0.499758 241.656 24.6074)" stroke="#8FC0AF" strokeWidth="1.8295" strokeLinejoin="bevel"/>
<rect width="116.854" height="233.708" transform="matrix(0.000279451 1 -0.866165 0.499758 208 5)" stroke="#8FC0AF" strokeWidth="1.8295" strokeLinejoin="bevel"/>
<rect width="116.854" height="233.708" transform="matrix(-0.865886 -0.500242 -0.865886 0.500242 342.883 199.475)" stroke="#8FC0AF" strokeWidth="1.8295" strokeLinejoin="bevel"/>
<rect width="116.854" height="233.708" transform="matrix(-0.865886 -0.500242 -0.865886 0.500242 343 277.531)" stroke="#8FC0AF" strokeWidth="1.8295" strokeLinejoin="bevel"/>
<rect width="38.9123" height="233.708" transform="matrix(-0.866025 -0.5 -0.865746 0.500484 241.551 24.5723)" fill="white" stroke="#8FC0AF" strokeWidth="1.8295" strokeLinejoin="bevel"/>
<rect width="38.9123" height="233.708" transform="matrix(-0.866025 -0.5 -0.865746 0.500484 241.688 141.076)" stroke="#8FC0AF" strokeWidth="1.8295" strokeLinejoin="bevel"/>
<rect width="38.9123" height="116.854" transform="matrix(-0.866026 -0.5 0.000558514 -1 39.1992 258.201)" fill="white" stroke="#8FC0AF" strokeWidth="1.8295" strokeLinejoin="bevel"/>
<rect width="77.8247" height="233.708" transform="matrix(4.37114e-08 1 -0.866305 0.499516 342.883 199.795)" fill="white" stroke="#8FC0AF" strokeWidth="1.8295" strokeLinejoin="bevel"/>
<rect width="77.8247" height="233.708" transform="matrix(4.37114e-08 1 -0.866305 0.499516 241.922 141.018)" stroke="#8FC0AF" strokeWidth="1.8295" strokeLinejoin="bevel"/>
<rect width="77.8247" height="116.854" transform="matrix(-4.37114e-08 1 0.866305 0.499516 39.3789 258.223)" fill="white" stroke="#8FC0AF" strokeWidth="1.8295" strokeLinejoin="bevel"/>
<path d="M342.707 199.794V277.327L140.374 394.414L38.8285 335.87V258.338L4.99927 237.888V122.203L207.332 5.17383L241.161 24.221V141.25L342.707 199.794Z" stroke="#8FC0AF" strokeWidth="4.57375"/>
</g>
<defs>
<clipPath id="clip0_357_2841">
<rect width="348" height="400" fill="white"/>
</clipPath>
</defs>
</svg>
