<svg width="334" height="387" viewBox="0 0 334 387" fill="none" xmlns="http://www.w3.org/2000/svg">
<g clip-path="url(#clip0_364_3007)">
<rect width="334" height="387" fill="white"/>
<rect width="79.7382" height="187.253" transform="matrix(0.865886 -0.500242 0.865886 0.500242 97.4453 154.84)" fill="white" stroke="#8FC0AF" strokeWidth="1.8295" strokeLinejoin="round"/>
<rect width="79.8801" height="186.894" transform="matrix(-4.37114e-08 1 0.866305 0.499516 97.7422 155.262)" fill="white" stroke="#8FC0AF" strokeWidth="1.8295" strokeLinejoin="round"/>
<rect width="79.9331" height="79.7382" transform="matrix(4.37114e-08 1 -0.866305 0.499516 328.594 208.824)" fill="white" stroke="#8FC0AF" strokeWidth="1.8295" strokeLinejoin="round"/>
<rect width="79.7382" height="187.253" transform="matrix(0.865886 -0.500242 0.865886 0.500242 5 208.322)" fill="white" stroke="#8FC0AF" strokeWidth="1.8295" strokeLinejoin="round"/>
<rect width="79.8801" height="186.894" transform="matrix(-4.37114e-08 1 0.866305 0.499516 5.30469 208.742)" fill="white" stroke="#8FC0AF" strokeWidth="1.8295" strokeLinejoin="round"/>
<rect width="79.9331" height="79.7382" transform="matrix(4.37114e-08 1 -0.866305 0.499516 236.148 262.307)" fill="white" stroke="#8FC0AF" strokeWidth="1.8295" strokeLinejoin="round"/>
<rect width="79.7382" height="187.253" transform="matrix(-0.865886 -0.500242 -0.865886 0.500242 236.188 45.4551)" fill="white" stroke="#8FC0AF" strokeWidth="1.8295" strokeLinejoin="round"/>
<rect width="79.8801" height="186.894" transform="matrix(4.37114e-08 1 -0.866305 0.499516 235.883 45.873)" fill="white" stroke="#8FC0AF" strokeWidth="1.8295" strokeLinejoin="round"/>
<rect width="79.9331" height="79.7382" transform="matrix(-4.37114e-08 1 0.866305 0.499516 5.03906 99.4395)" fill="white" stroke="#8FC0AF" strokeWidth="1.8295" strokeLinejoin="round"/>
<rect width="79.7382" height="187.253" transform="matrix(-0.865886 -0.500242 -0.865886 0.500242 328.938 100.875)" fill="white" stroke="#8FC0AF" strokeWidth="1.8295" strokeLinejoin="round"/>
<rect width="79.8801" height="186.894" transform="matrix(4.37114e-08 1 -0.866305 0.499516 328.633 101.293)" fill="white" stroke="#8FC0AF" strokeWidth="1.8295" strokeLinejoin="round"/>
<rect width="79.9331" height="79.7382" transform="matrix(-4.37114e-08 1 0.866305 0.499516 97.7812 154.859)" fill="white" stroke="#8FC0AF" strokeWidth="1.8295" strokeLinejoin="round"/>
<path d="M236.295 340.915L167.303 381.632L5 287.757V208.02L30.4481 194.447L5 180.875V97.7443L167.303 5L236.295 45.717V74.5583L260.612 60.9859L329.04 101.137V180.875L305.288 194.447L329.04 208.02V287.757L260.612 327.343L236.295 314.902V340.915Z" stroke="#8FC0AF" strokeWidth="5" strokeLinejoin="round"/>
</g>
<defs>
<clipPath id="clip0_364_3007">
<rect width="334" height="387" fill="white"/>
</clipPath>
</defs>
</svg>
