<svg width="413" height="316" viewBox="0 0 413 316" fill="none" xmlns="http://www.w3.org/2000/svg">
<g clip-path="url(#clip0_340_2678)">
<rect width="413" height="316" fill="white"/>
<rect width="74.943" height="149.886" transform="matrix(0.865886 -0.500242 0.865886 0.500242 213.324 43.6504)" fill="white" stroke="#8FC0AF" strokeWidth="1.8295" strokeLinejoin="round"/>
<rect width="110.109" height="149.886" transform="matrix(-4.37114e-08 1 0.866305 0.499516 213.324 43.8535)" fill="white" stroke="#8FC0AF" strokeWidth="1.8295" strokeLinejoin="round"/>
<rect width="40.5987" height="149.886" transform="matrix(-4.37114e-08 1 0.866305 0.499516 213.324 113.363)" fill="white" stroke="#8FC0AF" strokeWidth="1.8295" strokeLinejoin="round"/>
<rect width="73.2001" height="149.886" transform="matrix(-4.37114e-08 1 0.866305 0.499516 213.324 80.7637)" fill="white" stroke="#8FC0AF" strokeWidth="1.8295" strokeLinejoin="round"/>
<rect width="36.087" height="149.886" transform="matrix(-4.37114e-08 1 0.866305 0.499516 213.324 117.877)" fill="white" stroke="#8FC0AF" strokeWidth="1.8295" strokeLinejoin="round"/>
<rect width="113.485" height="74.943" transform="matrix(4.37114e-08 1 -0.866305 0.499516 407.969 81.3281)" fill="white" stroke="#8FC0AF" strokeWidth="1.8295" strokeLinejoin="round"/>
<rect width="36.7688" height="74.943" transform="matrix(4.37114e-08 1 -0.866305 0.499516 407.969 158.047)" fill="white" stroke="#8FC0AF" strokeWidth="1.8295" strokeLinejoin="round"/>
<rect width="76.353" height="74.943" transform="matrix(4.37114e-08 1 -0.866305 0.499516 407.969 118.459)" fill="white" stroke="#8FC0AF" strokeWidth="1.8295" strokeLinejoin="round"/>
<rect width="39.8608" height="74.943" transform="matrix(4.37114e-08 1 -0.866305 0.499516 407.969 154.953)" fill="white" stroke="#8FC0AF" strokeWidth="1.8295" strokeLinejoin="round"/>
<rect width="55.1058" height="110.212" transform="matrix(0.865886 -0.500242 0.865886 0.500242 5 71.0859)" fill="white" stroke="#8FC0AF" strokeWidth="1.8295" strokeLinejoin="round"/>
<rect width="33.3629" height="110.212" transform="matrix(-4.37114e-08 1 0.866305 0.499516 5 93.0781)" fill="white" stroke="#8FC0AF" strokeWidth="1.8295" strokeLinejoin="round"/>
<rect width="55.2404" height="55.1058" transform="matrix(4.37114e-08 1 -0.866305 0.499516 148.125 98.7891)" fill="white" stroke="#8FC0AF" strokeWidth="1.8295" strokeLinejoin="round"/>
<rect width="33.3414" height="55.1058" transform="matrix(4.37114e-08 1 -0.866305 0.499516 148.125 120.688)" fill="white" stroke="#8FC0AF" strokeWidth="1.8295" strokeLinejoin="round"/>
<rect width="55.1058" height="110.212" transform="matrix(0.865886 -0.500242 0.865886 0.500242 118.18 135.223)" fill="white" stroke="#8FC0AF" strokeWidth="1.8295" strokeLinejoin="round"/>
<rect width="55.2038" height="110.212" transform="matrix(-4.37114e-08 1 0.866305 0.499516 118.18 135.371)" fill="white" stroke="#8FC0AF" strokeWidth="1.8295" strokeLinejoin="round"/>
<rect width="55.2404" height="55.1058" transform="matrix(4.37114e-08 1 -0.866305 0.499516 261.301 162.924)" fill="white" stroke="#8FC0AF" strokeWidth="1.8295" strokeLinejoin="round"/>
<rect width="55.1058" height="110.212" transform="matrix(0.865886 -0.500242 0.865886 0.500242 118.18 135.223)" fill="white" stroke="#8FC0AF" strokeWidth="1.8295" strokeLinejoin="round"/>
<rect width="31.4255" height="110.212" transform="matrix(-4.37114e-08 1 0.866305 0.499516 118.18 159.15)" fill="white" stroke="#8FC0AF" strokeWidth="1.8295" strokeLinejoin="round"/>
<rect width="32.624" height="55.1058" transform="matrix(4.37114e-08 1 -0.866305 0.499516 261.301 185.539)" fill="white" stroke="#8FC0AF" strokeWidth="1.8295" strokeLinejoin="round"/>
<rect width="55.1058" height="110.212" transform="matrix(0.865886 -0.500242 0.865886 0.500242 231.359 200.768)" fill="white" stroke="#8FC0AF" strokeWidth="1.8295" strokeLinejoin="round"/>
<rect width="55.2038" height="110.212" transform="matrix(-4.37114e-08 1 0.866305 0.499516 231.359 200.92)" fill="white" stroke="#8FC0AF" strokeWidth="1.8295" strokeLinejoin="round"/>
<rect width="31.4405" height="110.212" transform="matrix(-4.37114e-08 1 0.866305 0.499516 231.359 224.684)" fill="white" stroke="#8FC0AF" strokeWidth="1.8295" strokeLinejoin="round"/>
<rect width="55.2404" height="55.1058" transform="matrix(4.37114e-08 1 -0.866305 0.499516 374.48 228.475)" fill="white" stroke="#8FC0AF" strokeWidth="1.8295" strokeLinejoin="round"/>
<rect width="31.2762" height="55.1058" transform="matrix(4.37114e-08 1 -0.866305 0.499516 374.48 252.439)" fill="white" stroke="#8FC0AF" strokeWidth="1.8295" strokeLinejoin="round"/>
<rect width="11.4828" height="11.586" rx="5.74139" transform="matrix(4.37114e-08 1 -0.866305 0.499516 369 264.201)" fill="white" stroke="#8FC0AF" strokeWidth="1.8295" strokeLinejoin="round"/>
<rect width="11.4828" height="11.586" rx="5.74139" transform="matrix(4.37114e-08 1 -0.866305 0.499516 343.035 279)" fill="white" stroke="#8FC0AF" strokeWidth="1.8295" strokeLinejoin="round"/>
<path d="M374.504 283.553L326.875 310.904L231.144 255.966V235.452L213.46 245.591L118.201 190.652V171.317L100.281 181.456L5.02237 126.282V71.1069L52.6518 43.5195L147.911 98.4584V118.029L165.831 107.654L261.089 162.829V183.342L279.009 172.968L374.504 228.614V283.553Z" stroke="#8FC0AF" strokeWidth="5" strokeLinejoin="round"/>
<path d="M361.636 220.009L407.605 195.366L407.605 81.0132L276.211 5L213.591 44.4545V136.032" stroke="#8FC0AF" strokeWidth="5" strokeLinejoin="round"/>
</g>
<defs>
<clipPath id="clip0_340_2678">
<rect width="413" height="316" fill="white"/>
</clipPath>
</defs>
</svg>
